<svg xmlns="http://www.w3.org/2000/svg" version="1.1" xmlns:xlink="http://www.w3.org/1999/xlink" xmlns:svgjs="http://svgjs.dev/svgjs" width="1000" height="1000" viewBox="0 0 1000 1000"><rect width="1000" height="1000" fill="#4d7e3e"></rect><g transform="matrix(0.7,0,0,0.7,149.5757696574957,352.8896565769253)"><svg viewBox="0 0 396 167" data-background-color="#4d7e3e" preserveAspectRatio="xMidYMid meet" height="421" width="1000" xmlns="http://www.w3.org/2000/svg" xmlns:xlink="http://www.w3.org/1999/xlink"><g id="tight-bounds" transform="matrix(1,0,0,1,0.23999316518813885,-0.13580810433160195)"><svg viewBox="0 0 395.52 167.2716162086632" height="167.2716162086632" width="395.52"><g><svg viewBox="0 0 395.52 167.2716162086632" height="167.2716162086632" width="395.52"><g><svg viewBox="0 0 395.52 167.2716162086632" height="167.2716162086632" width="395.52"><g id="textblocktransform"><svg viewBox="0 0 395.52 167.2716162086632" height="167.2716162086632" width="395.52" id="textblock"><g><svg viewBox="0 0 395.52 167.2716162086632" height="167.2716162086632" width="395.52"><g transform="matrix(1,0,0,1,0,0)"><svg width="395.52" viewBox="1.7999999523162842 -36 107.33999633789062 45.400001525878906" height="167.2716162086632" data-palette-color="#c9efc7"><path d="M27.55-30.15Q27.55-27.6 26.2-25.88 24.85-24.15 22.45-23.65L22.45-23.65 22.35-23.5Q24.85-21.3 24.85-18L24.85-18Q24.85-14.4 22.15-12.2 19.45-10 14.8-10L14.8-10 11.4-10Q9.9-10 8.9-9.22 7.9-8.45 7.9-7.25L7.9-7.25Q7.9-6.05 8.85-5.35 9.8-4.65 11.4-4.65L11.4-4.65 21.05-4.65Q24-4.65 25.78-2.8 27.55-0.95 27.55 1.9L27.55 1.9Q27.55 5.3 24.98 7.35 22.4 9.4 18.05 9.4L18.05 9.4 8 9.4Q6.3 9.4 4.88 8.5 3.45 7.6 2.63 6.23 1.8 4.85 1.8 3.4L1.8 3.4Q1.8 1.3 2.83-0.25 3.85-1.8 5.55-2.55L5.55-2.55Q3.25-3.95 3.25-6.7L3.25-6.7Q3.25-8.5 4.3-9.8 5.35-11.1 7.25-11.75L7.25-11.75Q3.9-13.6 3.9-18L3.9-18Q3.9-21.7 6.63-23.88 9.35-26.05 14.2-26.05L14.2-26.05 14.4-26.05Q17.2-26.05 19.5-25.2L19.5-25.2Q23.05-26.95 23.55-30.15L23.55-30.15 27.55-30.15ZM14.35-22.3Q11.7-22.3 10.13-21.28 8.55-20.25 8.55-18L8.55-18Q8.55-15.75 10.13-14.75 11.7-13.75 14.35-13.75L14.35-13.75Q17-13.75 18.6-14.75 20.2-15.75 20.2-18L20.2-18Q20.2-20.25 18.6-21.28 17-22.3 14.35-22.3L14.35-22.3ZM19.65-0.15L9.35-0.15Q8.15-0.15 7.3 0.7 6.45 1.55 6.45 2.75L6.45 2.75Q6.45 3.95 7.3 4.8 8.15 5.65 9.35 5.65L9.35 5.65 19 5.65Q20.6 5.65 21.75 4.73 22.9 3.8 22.9 2.6L22.9 2.6Q22.9 1.35 22.05 0.6 21.2-0.15 19.65-0.15L19.65-0.15ZM32.45-36L37.35-36 37.35-31.65 32.45-31.65 32.45-36ZM32.55-25.55L37.25-25.55 37.25 0 32.55 0 32.55-25.55ZM55.55-26.05Q58.59-26.05 61.02-24.73 63.45-23.4 64.8-21 66.15-18.6 66.15-15.5L66.15-15.5 61.5-15.5Q61.5-18.6 59.92-20.45 58.34-22.3 55.4-22.3L55.4-22.3Q52.3-22.3 50.47-20.23 48.65-18.15 48.65-14.55L48.65-14.55 48.65-11.85Q48.65-7.5 50.45-5.38 52.25-3.25 55.55-3.25L55.55-3.25Q58.59-3.25 60.12-5.08 61.65-6.9 61.65-10L61.65-10 66.15-10Q66.15-5.2 63.27-2.35 60.4 0.5 55.6 0.5L55.6 0.5 55.2 0.5Q51.8 0.5 49.25-1.07 46.7-2.65 45.32-5.5 43.95-8.35 43.95-12.15L43.95-12.15 43.95-13.35Q43.95-17.15 45.35-20.03 46.75-22.9 49.3-24.48 51.85-26.05 55.15-26.05L55.15-26.05 55.55-26.05ZM72.64-36L77.54-36 77.54-31.65 72.64-31.65 72.64-36ZM72.74-25.55L77.44-25.55 77.44 0 72.74 0 72.74-25.55ZM109.14-30.15Q109.14-27.6 107.79-25.88 106.44-24.15 104.04-23.65L104.04-23.65 103.94-23.5Q106.44-21.3 106.44-18L106.44-18Q106.44-14.4 103.74-12.2 101.04-10 96.39-10L96.39-10 92.99-10Q91.49-10 90.49-9.22 89.49-8.45 89.49-7.25L89.49-7.25Q89.49-6.05 90.44-5.35 91.39-4.65 92.99-4.65L92.99-4.65 102.64-4.65Q105.59-4.65 107.37-2.8 109.14-0.95 109.14 1.9L109.14 1.9Q109.14 5.3 106.56 7.35 103.99 9.4 99.64 9.4L99.64 9.4 89.59 9.4Q87.89 9.4 86.47 8.5 85.04 7.6 84.22 6.23 83.39 4.85 83.39 3.4L83.39 3.4Q83.39 1.3 84.42-0.25 85.44-1.8 87.14-2.55L87.14-2.55Q84.84-3.95 84.84-6.7L84.84-6.7Q84.84-8.5 85.89-9.8 86.94-11.1 88.84-11.75L88.84-11.75Q85.49-13.6 85.49-18L85.49-18Q85.49-21.7 88.22-23.88 90.94-26.05 95.79-26.05L95.79-26.05 95.99-26.05Q98.79-26.05 101.09-25.2L101.09-25.2Q104.64-26.95 105.14-30.15L105.14-30.15 109.14-30.15ZM95.94-22.3Q93.29-22.3 91.72-21.28 90.14-20.25 90.14-18L90.14-18Q90.14-15.75 91.72-14.75 93.29-13.75 95.94-13.75L95.94-13.75Q98.59-13.75 100.19-14.75 101.79-15.75 101.79-18L101.79-18Q101.79-20.25 100.19-21.28 98.59-22.3 95.94-22.3L95.94-22.3ZM101.24-0.15L90.94-0.15Q89.74-0.15 88.89 0.7 88.04 1.55 88.04 2.75L88.04 2.75Q88.04 3.95 88.89 4.8 89.74 5.65 90.94 5.65L90.94 5.65 100.59 5.65Q102.19 5.65 103.34 4.73 104.49 3.8 104.49 2.6L104.49 2.6Q104.49 1.35 103.64 0.6 102.79-0.15 101.24-0.15L101.24-0.15Z" opacity="1" transform="matrix(1,0,0,1,0,0)" fill="#c9efc7" class="wordmark-text-0" data-fill-palette-color="primary" id="text-0"></path></svg></g></svg></g></svg></g></svg></g><g></g></svg></g><defs></defs></svg><rect width="395.52" height="167.2716162086632" fill="none" stroke="none" visibility="hidden"></rect></g></svg></g></svg>